<svg width="11" height="11" viewBox="0 0 11 11" fill="none" xmlns="http://www.w3.org/2000/svg">
<path d="M2.13885 0.811764C1.80733 0.811764 1.48939 0.943461 1.25497 1.17788C1.02055 1.4123 0.888852 1.73024 0.888852 2.06176V6.14071C0.888852 6.47223 1.02055 6.79017 1.25497 7.0246C1.48939 7.25902 1.80733 7.39071 2.13885 7.39071H2.99412V9.45334L5.91596 7.39071H8.84938C9.1809 7.39071 9.49884 7.25902 9.73326 7.0246C9.96768 6.79017 10.0994 6.47223 10.0994 6.14071V2.06176C10.0994 1.73024 9.96768 1.4123 9.73326 1.17788C9.49884 0.943461 9.1809 0.811764 8.84938 0.811764H2.13885ZM0.230957 2.06176C0.230957 1.55576 0.431967 1.07048 0.789767 0.712679C1.14757 0.354879 1.63285 0.15387 2.13885 0.15387H8.84938C9.35538 0.15387 9.84067 0.354879 10.1985 0.712679C10.5563 1.07048 10.7573 1.55576 10.7573 2.06176V6.14071C10.7573 6.64672 10.5563 7.132 10.1985 7.4898C9.84067 7.8476 9.35538 8.04861 8.84938 8.04861H6.12491L3.26964 10.0639C2.87754 10.3407 2.33622 10.0602 2.33622 9.58019V8.04861H2.13885C1.63285 8.04861 1.14757 7.8476 0.789767 7.4898C0.431967 7.132 0.230957 6.64672 0.230957 6.14071V2.06176Z" fill="#BEBEBE"/>
</svg>
